<?xml version="1.0" encoding="UTF-8"?><svg id="Camada_2" xmlns="http://www.w3.org/2000/svg" viewBox="0 0 237 48.92"><defs><style>.cls-1{fill:#fff;}</style></defs><g id="Camada_1-2"><g><path class="cls-1" d="M231.69,38.29h-5.25c5.84-1.56,10.37-6.63,10.56-12.89,.14-4.65-2.03-8.8-5.44-11.4-.31-.24-.14-.73,.26-.73h5.19v-2.11h-15.32c-5.9,0-11.31,3.68-13.1,9.29-3.04,9.55,4,18.34,13.1,18.34h.75v2.74h5.09c1.14,0,2.07,.93,2.07,2.07s-.93,2.07-2.07,2.07h-10.17c-1.14,0-2.07-.93-2.07-2.07v-2.14h-7.42v2.14c0,2.94,2.38,5.32,5.32,5.32h18.51c2.94,0,5.32-2.38,5.32-5.32s-2.38-5.32-5.32-5.32Zm-16.41-9.89v-6.83c0-3.95,3.2-7.15,7.16-7.15s7.16,3.2,7.15,7.16v6.83c0,3.95-3.2,7.15-7.16,7.15s-7.16-3.2-7.15-7.16Z"/><path class="cls-1" d="M204.86,24.98c0-7.63-6.19-13.82-13.82-13.82h-1.57c-7.63,0-13.82,6.19-13.82,13.82s6.19,13.82,13.82,13.82h1.57c2.73,0,5.25-.82,7.39-2.18l-3.16-3.16c-1.29,1.28-3.05,2.09-5.02,2.09-3.97,0-7.19-3.22-7.19-7.19v-2.3h21.74c.03-.36,.05-.72,.05-1.08Zm-21.79-3.38c0-3.97,3.22-7.19,7.19-7.19s7.19,3.22,7.19,7.19v2.36h-14.37v-2.36Z"/><path class="cls-1" d="M168.71,6.4V3.15h-23.94c-5.29,0-9.58,4.29-9.58,9.58h0c0,5.29,4.29,9.58,9.58,9.58h13.76c3.5,0,6.33,2.84,6.33,6.33v.05c0,3.5-2.84,6.33-6.33,6.33h-19.77v3.25h23.94c5.29,0,9.58-4.29,9.58-9.58v-.05c0-5.29-4.29-9.58-9.58-9.58h-13.76c-3.5,0-6.33-2.84-6.33-6.33h0c0-3.5,2.84-6.33,6.33-6.33h19.77Z"/></g><g><path class="cls-1" d="M70.2,24.98h0c0,7.63,6.19,13.82,13.82,13.82h1.57c7.63,0,13.82-6.19,13.82-13.82h0c0-7.63-6.19-13.82-13.82-13.82h-1.57c-7.63,0-13.82,6.19-13.82,13.82Zm7.42,3.38v-6.76c0-3.97,3.22-7.19,7.19-7.19h0c3.97,0,7.19,3.22,7.19,7.19v6.76c0,3.97-3.22,7.19-7.19,7.19h0c-3.97,0-7.19-3.22-7.19-7.19Z"/><path class="cls-1" d="M38.62,0V2.11h3.14c.73,0,1.33,.59,1.33,1.33V38.28h7.42V3.07c0-1.69-1.37-3.07-3.07-3.07h-8.81Z"/><path class="cls-1" d="M54.7,0V2.11h3.14c.73,0,1.33,.59,1.33,1.33V38.28h7.42V3.07c0-1.69-1.37-3.07-3.07-3.07h-8.81Z"/><path class="cls-1" d="M36.32,38.28L22.72,4.88c-.43-1.05-1.45-1.73-2.58-1.73H8.47v2.11h2.46c.93,0,1.58,.94,1.24,1.81L0,38.28H3.25L15.37,7.18l12.66,31.1h8.29Z"/><path class="cls-1" d="M128.08,11.65l-9.1,23.35-8.72-21.42c-.47-1.16-1.6-1.92-2.86-1.92h-10.68v2.11h4.27c.64,0,1.21,.39,1.45,.98l9.59,23.55h5.67l-2.17,5.56c-.25,.64-.86,1.06-1.55,1.06h-8.93l1.63,4.01,7.98-.02c1.3,0,2.46-.8,2.93-2.01l13.73-35.25h-3.25Z"/></g></g></svg>